<?xml version="1.0" standalone="no"?>
<!DOCTYPE svg PUBLIC "-//W3C//DTD SVG 20010904//EN"
 "http://www.w3.org/TR/2001/REC-SVG-20010904/DTD/svg10.dtd">
<svg version="1.0" xmlns="http://www.w3.org/2000/svg"
 width="600.000000pt" height="600.000000pt" viewBox="0 0 600.000000 600.000000"
 preserveAspectRatio="xMidYMid meet">
<metadata>
Created by potrace 1.14, written by Peter Selinger 2001-2017
</metadata>
<g transform="translate(0.000000,600.000000) scale(0.100000,-0.100000)"
fill="#000000" stroke="none">
<path d="M0 3000 l0 -3000 3000 0 3000 0 0 3000 0 3000 -3000 0 -3000 0 0
-3000z m1488 1094 c55 -38 83 -162 42 -184 -62 -33 -390 -641 -504 -935 -47
-121 -77 -195 -101 -250 -8 -16 -16 -46 -18 -65 -3 -19 -16 -79 -30 -132 -14
-53 -29 -130 -33 -171 -13 -146 11 -203 110 -255 85 -44 194 -33 559 60 l129
33 24 -29 c19 -21 24 -38 22 -65 -3 -32 -13 -44 -88 -104 -93 -75 -216 -139
-297 -156 -150 -31 -346 -22 -459 20 -86 33 -159 109 -218 230 -46 95 -46 95
-45 199 0 58 4 128 9 155 5 28 13 75 19 105 5 30 14 68 20 83 6 16 11 45 11
66 0 24 8 48 21 64 11 15 23 44 26 64 3 21 16 58 29 83 13 25 38 86 55 135 18
50 49 126 69 170 20 44 45 103 55 130 63 174 285 540 407 671 83 88 138 112
186 78z m4057 -53 c22 -10 58 -38 81 -63 56 -61 70 -120 54 -231 -15 -106 -62
-311 -105 -451 -18 -61 -37 -129 -40 -151 -4 -22 -32 -129 -62 -238 -61 -227
-81 -313 -93 -412 -5 -38 -15 -94 -24 -124 -9 -30 -18 -108 -22 -175 -3 -67
-12 -145 -19 -174 -17 -67 -57 -122 -91 -122 -13 0 -24 -4 -24 -10 0 -5 -22
-10 -48 -10 -38 0 -53 5 -70 23 -38 41 -53 174 -31 293 5 32 80 345 165 694
175 720 166 680 160 680 -6 0 -88 -139 -113 -191 -12 -26 -39 -75 -60 -110
-22 -35 -68 -120 -103 -189 -35 -69 -84 -159 -108 -200 -25 -41 -66 -114 -92
-161 -67 -124 -248 -365 -343 -456 -186 -178 -292 -213 -387 -127 -48 43 -87
121 -96 190 -13 101 49 426 152 800 69 252 75 284 56 284 -16 0 -107 -167
-282 -514 -205 -409 -375 -721 -508 -933 -71 -115 -88 -124 -137 -76 -46 47
-68 101 -69 173 0 56 5 78 37 144 21 44 57 109 81 145 24 36 52 84 62 106 29
64 131 250 197 359 33 56 147 259 254 451 107 193 206 366 222 385 15 19 49
78 74 130 55 113 113 191 149 204 39 14 128 -33 168 -87 54 -73 65 -130 52
-255 -12 -120 -81 -473 -141 -728 -81 -340 -97 -461 -64 -471 20 -7 51 33 185
234 139 209 272 428 460 758 136 238 302 507 351 568 47 60 99 72 172 38z
m-2807 -72 c44 -89 42 -99 -43 -285 -126 -275 -215 -476 -215 -486 0 -6 15 3
34 19 167 140 601 485 641 509 28 17 117 79 200 138 82 59 160 109 173 113 30
7 73 -33 107 -101 47 -95 30 -130 -100 -196 -44 -22 -100 -58 -124 -80 -24
-22 -125 -98 -225 -169 -100 -71 -212 -156 -249 -190 -37 -33 -73 -61 -80 -61
-17 -1 -59 -39 -86 -77 -12 -18 -29 -33 -38 -33 -16 0 -145 -83 -164 -106 -8
-10 -7 -33 5 -88 23 -111 51 -187 118 -324 69 -140 130 -225 216 -303 59 -53
85 -69 169 -104 23 -9 56 -32 73 -50 30 -31 32 -38 28 -87 -6 -71 -26 -110
-68 -130 -34 -17 -39 -17 -110 3 -88 25 -127 49 -237 140 -98 83 -130 121
-223 267 -73 116 -119 213 -139 292 -24 92 -64 220 -70 220 -10 0 -36 -75
-136 -395 -139 -446 -173 -535 -212 -549 -19 -8 -104 45 -139 87 -24 29 -25
34 -19 106 4 42 13 86 21 98 8 12 14 33 14 45 0 32 52 201 88 284 16 39 33 86
37 105 4 19 18 57 31 85 13 28 28 77 33 110 5 32 22 91 39 129 17 39 62 158
100 265 39 107 94 247 122 310 29 63 61 139 71 169 11 30 36 87 58 126 21 39
44 89 51 111 28 87 96 135 185 131 37 -2 42 -6 63 -48z"/>
</g>
</svg>
